<svg xmlns="http://www.w3.org/2000/svg" width="373" height="20" viewBox="0 0 373 20">
    <defs>
        <clipPath id="prefix__clip-path">
            <path id="prefix__패스_1246" d="M346.2-15.5h17.6a3.625 3.625 0 0 1 1.926.334 2.272 2.272 0 0 1 .945.945A3.625 3.625 0 0 1 367-12.3v6.369A1.926 1.926 0 0 1 365.074-4H346.2a3.625 3.625 0 0 1-1.926-.334 2.272 2.272 0 0 1-.945-.945A3.625 3.625 0 0 1 343-7.2v-5.1a3.625 3.625 0 0 1 .334-1.926 2.272 2.272 0 0 1 .945-.945 3.625 3.625 0 0 1 1.921-.329z" class="prefix__cls-1" data-name="패스 1246"/>
        </clipPath>
        <clipPath id="prefix__clip-path-2">
            <path id="prefix__패스_1245" d="M2 0h373v-20H2z" data-name="패스 1245" style="fill:none"/>
        </clipPath>
        <clipPath id="prefix__clip-path-3">
            <path id="prefix__패스_1249" d="M368-11.5a2 2 0 0 1 1.5 1.937 2 2 0 0 1-1.5 1.937z" class="prefix__cls-1" data-name="패스 1249"/>
        </clipPath>
        <clipPath id="prefix__clip-path-5">
            <path id="prefix__패스_1252" d="M345.5-13.5h19a.5.5 0 0 1 .5.5v6.5a.5.5 0 0 1-.5.5h-19a.5.5 0 0 1-.5-.5V-13a.5.5 0 0 1 .5-.5z" class="prefix__cls-1" data-name="패스 1252"/>
        </clipPath>
        <clipPath id="prefix__clip-path-8">
            <path id="prefix__패스_1257" d="M8-9.5a1 1 0 0 1 1 1V-6a1 1 0 0 1-1 1H7a1 1 0 0 1-1-1v-2.5a1 1 0 0 1 1-1zm4.5-1.5a1 1 0 0 1 1 1v4a1 1 0 0 1-1 1h-1a1 1 0 0 1-1-1v-4a1 1 0 0 1 1-1zm4.5-2a1 1 0 0 1 1 1v6a1 1 0 0 1-1 1h-1a1 1 0 0 1-1-1v-6a1 1 0 0 1 1-1zm4.5-2a1 1 0 0 1 1 1v8a1 1 0 0 1-1 1h-1a1 1 0 0 1-1-1v-8a1 1 0 0 1 1-1z" class="prefix__cls-1" data-name="패스 1257"/>
        </clipPath>
        <clipPath id="prefix__clip-path-10">
            <path id="prefix__패스_1260" d="M71.33-12.17A10.463 10.463 0 0 1 78.5-15a10.463 10.463 0 0 1 7.17 2.83l-1.415 1.415A8.47 8.47 0 0 0 78.5-13a8.47 8.47 0 0 0-5.755 2.245L71.33-12.17zm2.477 2.477A6.974 6.974 0 0 1 78.5-11.5a6.974 6.974 0 0 1 4.693 1.807l-1.416 1.416A4.981 4.981 0 0 0 78.5-9.5a4.981 4.981 0 0 0-3.277 1.223zm2.481 2.481A3.485 3.485 0 0 1 78.5-8a3.485 3.485 0 0 1 2.212.788L78.5-5l-2.212-2.212z" class="prefix__cls-1" data-name="패스 1260"/>
        </clipPath>
        <style>
            .prefix__cls-1{fill:none;clip-rule:evenodd}.prefix__cls-4{clip-path:url(#prefix__clip-path-2)}.prefix__cls-11{fill:#030303;font-size:12px;font-family:Helvetica}
        </style>
    </defs>
    <g id="prefix__그룹_1113" data-name="그룹 1113" transform="translate(-2 20)">
        <g id="prefix__그룹_1099" data-name="그룹 1099">
            <g id="prefix__그룹_1098" class="prefix__cls-4" data-name="그룹 1098">
                <g id="prefix__그룹_1097" data-name="그룹 1097" transform="translate(343 -15.5)">
                    <path id="prefix__패스_1244" d="M3.2 0h17.6a3.625 3.625 0 0 1 1.926.334 2.272 2.272 0 0 1 .945.945A3.625 3.625 0 0 1 24 3.2v6.374a1.926 1.926 0 0 1-1.926 1.926H3.2a3.625 3.625 0 0 1-1.926-.334 2.272 2.272 0 0 1-.945-.945A3.625 3.625 0 0 1 0 8.3V3.2a3.625 3.625 0 0 1 .334-1.921 2.272 2.272 0 0 1 .945-.945A3.625 3.625 0 0 1 3.2 0z" data-name="패스 1244" style="stroke:rgba(0,0,0,.4);stroke-width:2px;fill:none"/>
                </g>
            </g>
        </g>
        <g id="prefix__그룹_1101" data-name="그룹 1101">
            <g id="prefix__그룹_1100" class="prefix__cls-4" data-name="그룹 1100">
                <path id="prefix__패스_1247" d="M363-16.5h11.5v13.874H363z" data-name="패스 1247" style="fill:rgba(0,0,0,.4)"/>
            </g>
        </g>
        <g id="prefix__그룹_1103" data-name="그룹 1103">
            <g id="prefix__그룹_1102" class="prefix__cls-4" data-name="그룹 1102">
                <path id="prefix__패스_1250" d="M340-18.5h30V-1h-30z" data-name="패스 1250"/>
            </g>
        </g>
        <g id="prefix__그룹_1108" class="prefix__cls-4" data-name="그룹 1108">
            <g id="prefix__그룹_1104" data-name="그룹 1104" transform="translate(307 -16.5)">
                <text id="prefix___100_" data-name="100%" transform="translate(2.309 11)" style="letter-spacing:0;fill:#030303;font-size:12px;font-family:Helvetica">
                    <tspan x="0" y="0">100%</tspan>
                </text>
            </g>
            <g id="prefix__그룹_1105" data-name="그룹 1105" transform="translate(298.5 -15)">
                <path id="prefix__패스_1253" d="M0 2l6 5.5L3 10V0l3 2.5L0 8" data-name="패스 1253" style="stroke:#000;fill:none"/>
            </g>
            <g id="prefix__그룹_1106" data-name="그룹 1106" transform="translate(163 -16.5)">
                <text id="prefix___9:41_AM" class="prefix__cls-11" data-name="9:41 AM" transform="translate(2.155 11)">
                    <tspan x="0" y="0">9:41 AM</tspan>
                </text>
            </g>
            <g id="prefix__그룹_1107" data-name="그룹 1107" transform="translate(26 -16.5)">
                <text id="prefix__Sketch" class="prefix__cls-11" transform="translate(0 11)">
                    <tspan x="0" y="0">Sketch</tspan>
                </text>
            </g>
        </g>
        <g id="prefix__그룹_1110" data-name="그룹 1110">
            <g id="prefix__그룹_1109" class="prefix__cls-4" data-name="그룹 1109">
                <path id="prefix__패스_1255" d="M1-20h26.5V0H1z" data-name="패스 1255"/>
            </g>
        </g>
        <g id="prefix__그룹_1112" data-name="그룹 1112">
            <g id="prefix__그룹_1111" class="prefix__cls-4" data-name="그룹 1111">
                <path id="prefix__패스_1258" d="M66.33-20h24.34V0H66.33z" data-name="패스 1258"/>
            </g>
        </g>
    </g>
</svg>
